<?xml version="1.0" encoding="UTF-8"?>
<svg id="Layer_1" data-name="Layer 1" xmlns="http://www.w3.org/2000/svg" viewBox="0 0 1182.21 596.28">
  <defs>
    <style>
      .cls-1 {
        fill: #009444;
        stroke: #009444;
      }

      .cls-1, .cls-2, .cls-3, .cls-4, .cls-5, .cls-6 {
        stroke-miterlimit: 10;
      }

      .cls-2 {
        fill: #fff;
        stroke-width: 2px;
      }

      .cls-2, .cls-4, .cls-5, .cls-6 {
        stroke: #231f20;
      }

      .cls-3 {
        fill: #b00;
        stroke: #b00;
      }

      .cls-3, .cls-5, .cls-6 {
        stroke-width: 5px;
      }

      .cls-4 {
        stroke-width: 6px;
      }

      .cls-4, .cls-7, .cls-6 {
        fill: none;
      }

      .cls-8, .cls-5 {
        fill: #231f20;
      }
    </style>
  </defs>
  <rect class="cls-1" x=".5" y=".5" width="841.89" height="595.28"/>
  <ellipse class="cls-7" cx="494.19" cy="209.31" rx="94.41" ry="107.48"/>
  <path class="cls-6" d="M446.93,345.75c3.5-6.66,3.63-10.87,3.18-13.4-2.17-12.07-22.99-16.44-52.41-9.43"/>
  <path class="cls-6" d="M340.14,139.13c-6.34-4.8-31.01-22.08-60.21-9.27-15.97,7.01-26.81,20.18-32.58,28.44"/>
  <path class="cls-7" d="M672.51,125.22c-52.14,0-94.41,48.12-94.41,107.48,0,59.36,42.27,107.48,94.41,107.48"/>
  <path class="cls-7" d="M731.86,316.8c-52.14,0-94.41-48.12-94.41-107.48s42.27-107.48,94.41-107.48"/>
  <path class="cls-5" d="M266.79,322.99c28.94-27.25,162.76,41.65,157.75,85.21-3.02,26.23-57.5,52.94-103.52,37.53-30.53-10.23-45.24-35.53-48.99-42.26-13.88-24.89-21.31-65.34-5.23-80.47Z"/>
  <path class="cls-3" d="M290.56,367.94c21.23-3.33,80.34,60.63,68.87,77.02-6.9,9.87-41.95,6.12-63.93-12.51-14.59-12.36-17.53-26.61-18.22-30.35-2.57-13.86,1.49-32.32,13.28-34.16Z"/>
  <ellipse class="cls-7" cx="601.97" cy="232.7" rx="94.41" ry="107.48"/>
  <path class="cls-6" d="M490.91,107.57c6.34-4.8,31.01-22.08,60.21-9.27,15.97,7.01,26.81,20.18,32.58,28.44"/>
  <ellipse class="cls-7" cx="661.32" cy="209.31" rx="94.41" ry="107.48"/>
  <ellipse class="cls-7" cx="603.97" cy="232.7" rx="94.41" ry="107.48"/>
  <ellipse class="cls-7" cx="1087.8" cy="184.58" rx="94.41" ry="107.48"/>
  <path class="cls-2" d="M565.82,258.78c-8.49,7.36-28.18-17.68-68.27-17.2-38.69.46-57,24.22-65.19,17.2-14.73-12.62,17.91-112.15,66.54-112.27,48.67-.12,81.75,99.43,66.92,112.27Z"/>
  <path class="cls-4" d="M425.33,265.73c55.17-34.88,98.68-29.26,149.28,0"/>
  <ellipse class="cls-8" cx="502.17" cy="203.32" rx="26.44" ry="23.47"/>
  <ellipse class="cls-2" cx="509.55" cy="190.13" rx="6.92" ry="6.14"/>
  <ellipse class="cls-7" cx="316.22" cy="209.31" rx="94.41" ry="107.48"/>
  <path class="cls-7" d="M494.54,125.22c-52.14,0-94.41,48.12-94.41,107.48,0,59.36,42.27,107.48,94.41,107.48"/>
  <ellipse class="cls-7" cx="424" cy="232.7" rx="94.41" ry="107.48"/>
  <ellipse class="cls-7" cx="483.34" cy="209.31" rx="94.41" ry="107.48"/>
  <ellipse class="cls-7" cx="425.99" cy="232.7" rx="94.41" ry="107.48"/>
  <path class="cls-2" d="M387.85,258.78c-8.49,7.36-28.18-17.68-68.27-17.2-38.69.46-57,24.22-65.19,17.2-14.73-12.62,17.91-112.15,66.54-112.27,48.67-.12,81.75,99.43,66.92,112.27Z"/>
  <path class="cls-4" d="M247.36,265.73c55.17-34.88,98.68-29.26,149.28,0"/>
  <ellipse class="cls-8" cx="324.2" cy="203.32" rx="26.44" ry="23.47"/>
  <ellipse class="cls-2" cx="331.58" cy="190.13" rx="6.92" ry="6.14"/>
</svg>