<?xml version="1.0" encoding="UTF-8"?>
<svg id="Layer_1" data-name="Layer 1" xmlns="http://www.w3.org/2000/svg" viewBox="0 0 841.89 595.28">
  <defs>
    <style>
      .cls-1 {
        fill: #db5426;
      }

      .cls-2 {
        fill: #231f20;
      }

      .cls-3 {
        stroke-width: 5px;
      }

      .cls-3, .cls-4 {
        fill: none;
      }

      .cls-3, .cls-5 {
        stroke: #231f20;
        stroke-miterlimit: 10;
      }

      .cls-5 {
        fill: #fff;
        stroke-width: 2px;
      }
    </style>
  </defs>
  <rect class="cls-1" width="841.89" height="595.28"/>
  <ellipse class="cls-4" cx="400.75" cy="165.84" rx="94.41" ry="107.48"/>
  <path class="cls-5" d="M495.16,218.92c0,52.34,29.88,90.01,66.73,90.01s66.73-37.67,66.73-90.01-29.88-94.76-66.73-94.76-66.73,42.43-66.73,94.76Z"/>
  <path class="cls-3" d="M640.98,331.58c-53.9-27.2-96.39-22.81-145.82,0"/>
  <ellipse class="cls-2" cx="561.89" cy="216.55" rx="26.44" ry="23.47"/>
  <ellipse class="cls-5" cx="568.07" cy="206.44" rx="6.92" ry="6.14"/>
  <path class="cls-3" d="M518.82,75.08c-8.05-14.37-9.38-24.11-3.97-29.22,11.38-10.76,52.55-1.02,123.54,29.22"/>
  <ellipse class="cls-4" cx="460.09" cy="142.45" rx="94.41" ry="107.48"/>
  <path class="cls-5" d="M365.68,195.53c0,52.34-29.88,90.01-66.73,90.01s-66.73-37.67-66.73-90.01,29.88-94.76,66.73-94.76,66.73,42.43,66.73,94.76Z"/>
  <path class="cls-3" d="M219.86,308.19c53.9-27.2,96.39-22.81,145.82,0"/>
  <ellipse class="cls-2" cx="298.95" cy="193.16" rx="26.44" ry="23.47"/>
  <ellipse class="cls-5" cx="292.77" cy="183.05" rx="6.92" ry="6.14"/>
  <path class="cls-3" d="M349.7,109.74c10.02-19.68,11.67-33.01,4.94-40.01-14.16-14.73-65.4-1.39-153.73,40.01"/>
  <path class="cls-3" d="M310.83,419.54c-.31-23.2,7.67-34.93,14.57-41.24,32.84-30.04,123.37-12.67,224.62,48.03"/>
  <path class="cls-3" d="M457.53,342.31c.07-7.53-1.74-11.33-3.3-13.37-7.44-9.74-27.97-4.11-50.92,15.58"/>
  <path class="cls-3" d="M383.1,423.44h47.32"/>
  <path class="cls-3" d="M391.23,410.06h31.05"/>
</svg>