<?xml version="1.0" encoding="UTF-8"?>
<svg id="Layer_1" data-name="Layer 1" xmlns="http://www.w3.org/2000/svg" viewBox="0 0 841.89 595.28">
  <defs>
    <style>
      .cls-1 {
        stroke-width: 2px;
      }

      .cls-1, .cls-2, .cls-3 {
        fill: #fff;
      }

      .cls-1, .cls-2, .cls-4, .cls-5, .cls-6 {
        stroke-miterlimit: 10;
      }

      .cls-1, .cls-2, .cls-5, .cls-6 {
        stroke: #231f20;
      }

      .cls-4 {
        stroke: #b00;
      }

      .cls-4, .cls-7 {
        fill: #b00;
      }

      .cls-4, .cls-5, .cls-6 {
        stroke-width: 5px;
      }

      .cls-8, .cls-5 {
        fill: #231f20;
      }

      .cls-6 {
        fill: none;
      }
    </style>
  </defs>
  <rect class="cls-7" width="841.89" height="595.28"/>
  <path class="cls-1" d="M365.48,261.9c0,52.34-29.88,90.01-66.73,90.01s-66.73-37.67-66.73-90.01,29.88-94.76,66.73-94.76,66.73,42.43,66.73,94.76Z"/>
  <path class="cls-6" d="M219.66,374.55c53.9-27.2,96.39-22.81,145.82,0"/>
  <ellipse class="cls-8" cx="298.75" cy="259.52" rx="26.44" ry="23.47"/>
  <ellipse class="cls-1" cx="292.57" cy="249.41" rx="6.92" ry="6.14"/>
  <path class="cls-6" d="M224.45,112.69c18.24,13.94,51.4,35.21,97.63,43.97,23.62,4.48,44.5,4.53,60.82,3.21"/>
  <path class="cls-1" d="M600.93,267.69c0,52.34-29.88,90.01-66.73,90.01s-66.73-37.67-66.73-90.01,29.88-94.76,66.73-94.76,66.73,42.43,66.73,94.76Z"/>
  <path class="cls-6" d="M455.11,380.35c53.9-27.2,96.39-22.81,145.82,0"/>
  <ellipse class="cls-8" cx="534.2" cy="265.31" rx="26.44" ry="23.47"/>
  <ellipse class="cls-1" cx="528.02" cy="255.21" rx="6.92" ry="6.14"/>
  <path class="cls-6" d="M618.35,118.48c-18.24,13.94-51.4,35.21-97.63,43.97-23.62,4.48-44.5,4.53-60.82,3.21"/>
  <path class="cls-5" d="M290.95,407.34c15.73-7.93,40.55,1.8,59.23,4.72,29.79,5.59,59.38,7.71,89.37,4.6,22.07-2.14,42.9-7.86,63.15-12.74,10.74-2.5,22.75-5.23,33.32-3.65,26.7,4.87,28.21,34.03,27.24,52.94-.66,15.25-.77,31.13-3.7,45.55-10.09,49.05-41.11,33.15-76.32,8.86-8.38-5.8-16.74-11.89-25.17-16.44-15.33-8.26-33.31-12.52-51.24-9.67-7.46,1.31-14.37,4.16-20.74,7.51-14.99,8.18-31.56,19.49-45.29,29.92-10.48,8.03-23.39,19.3-32.41,22.75-20.83,8.57-30.33-20.2-32.94-32.62-4.67-20.73-3.53-43.33-.64-64.57,2.42-13.92,3.32-29.32,15.98-37.08l.14-.08Z"/>
  <path class="cls-2" d="M61.09,150.77c-17.13,11.04-24.49,11.09-28.35,33.99-1.03,6.09.39,11.55,4.99,16.07,4.79,4.86,10.55,9.57,15.8,14.03,6.85,5.89,13.61,9.02,21.87,11.81,8.26,2.94,17.8,5.34,22.54,13.32,2.93,4.45,4.38,10.14,7.32,14.54,1.7,2.62,4.35,4.32,7.5,4.03,5.23-.42,13.43-4.67,19.15-7.59,8.21-4.05,10.18-10.33,11.42-18.85,1.34-9.36,3.45-19.46,4.07-28.76.58-6.92-3.7-12.15-7.84-17.21-5.4-6.63-13.25-16.23-18.72-22.9-4.36-5.36-8.47-9.99-13.72-12.74-4.65-2.56-9.66-4.58-14.59-6.62-4.86-1.95-10.05-3.74-15.27-2.67-5.73,1.04-10.39,5.68-15.99,9.44l-.17.12Z"/>
  <path class="cls-2" d="M781.71,153.49c17.13,11.04,24.49,11.09,28.35,33.99,1.03,6.09-.39,11.55-4.99,16.07-4.79,4.86-10.55,9.57-15.8,14.03-6.85,5.89-13.61,9.02-21.87,11.81-8.26,2.94-17.8,5.34-22.54,13.32-2.93,4.45-4.38,10.14-7.32,14.54-1.7,2.62-4.35,4.32-7.5,4.03-5.23-.42-13.43-4.67-19.15-7.59-8.21-4.05-10.18-10.33-11.42-18.85-1.34-9.36-3.45-19.46-4.07-28.76-.58-6.92,3.7-12.15,7.84-17.21,5.4-6.63,13.25-16.23,18.72-22.9,4.36-5.36,8.47-9.99,13.72-12.74,4.65-2.56,9.66-4.58,14.59-6.62,4.86-1.95,10.05-3.74,15.27-2.67,5.73,1.04,10.39,5.68,15.99,9.44l.17.12Z"/>
  <path class="cls-4" d="M364.89,464.93c17.58-12.37,98.86,18.9,95.82,38.67-1.83,11.9-34.93,24.02-62.88,17.03-18.54-4.64-27.48-16.12-29.76-19.18-8.43-11.3-12.94-29.65-3.18-36.52Z"/>
  <path class="cls-3" d="M472.84,484.13c-1.66,24.32-11.37,17.59-26.53,7.7-11.4-6.93-25.66-11.42-38.77-7.75-7.84,2.33-15.26,6.47-22.28,10.83-5.53,3.46-12.1,7.81-18.22,7.87-12.07.18-12.89-13.17-2.99-17.63,5.54-2.84,14.75-2.7,22.93-3,6.77-.21,13.53-.41,20.26-.61"/>
  <path class="cls-3" d="M362.37,491.94c-.53-2.49-1.29-5.8,1-7.64,2.58-2.08,6.01-3.22,9.2-3.92,6.93-1.53,14.21-1.01,21.24-.87,8.38.17,16.76.35,25.14.52s16.61.48,24.92.4c9.22-.09,18.5-1.47,27.7-.3l-2.41-1.84c.23,1.58.06,3.17-.34,4.7l3.08-1.75c-7.37-1.45-14.8-.78-22.24-.87s-14.04-1.78-21.1-2.92-14.78-1.01-22.24-.85c-7.57.17-15.14.36-22.71.75-6.62.35-17.62-.23-19.54,8.17-.3,1.32.4,2.7,1.75,3.08,1.46.4,2.97.65,4.42.11,1.37-.52,2.58-1.69,2.8-3.18.21-1.39-.34-2.61-1.75-3.08-4.47-1.47-9.51.54-11.91,4.53-.74,1.23-.2,2.65.9,3.42,2.16,1.52,5.35,1.58,7.35-.27,1.79-1.65,2.29-4.62.86-6.65-.78-1.1-2.18-1.62-3.42-.9-1.09.64-1.68,2.31-.9,3.42.11.16.29.3.18.38-.51.39-1.09.01-1.55-.31l.9,3.42c1.3-2.16,3.92-3,6.27-2.23l-1.75-3.08c-.12.81.12-.35.33-.15-.1-.09-1.24-.22-1.4-.26l1.75,3.08c.61-2.66,3.47-3.58,5.89-3.9,3.23-.44,6.56-.49,9.82-.65,7.07-.35,14.15-.54,21.23-.69,6.98-.15,14.01-.49,20.93.59s13.55,2.82,20.49,3.11c7.76.33,15.64-.76,23.32.75,1.31.26,2.71-.36,3.08-1.75.65-2.46.71-4.85.34-7.36-.17-1.17-1.41-1.71-2.41-1.84-8.55-1.09-17.14.08-25.71.26s-17.62-.17-26.41-.36c-8.79-.18-17.59-.37-26.38-.55-7.59-.16-15.38-.58-22.82,1.29-3.79.96-8.33,2.63-11.05,5.58-3.04,3.3-2.51,7.85-1.65,11.9.67,3.15,5.49,1.81,4.82-1.33h0Z"/>
  <path class="cls-3" d="M367.98,486.49c2.88-.85,5.63-1.58,8.66-1.36,1.52.11,3.03.32,4.55.16s2.95-.63,4.38-1.28c2.38-1.08,4.53-2.09,7.19-2.26,2.9-.19,5.8.17,8.67.53,1.34.17,2.5-1.27,2.5-2.5,0-1.49-1.15-2.33-2.5-2.5-2.87-.36-5.77-.72-8.67-.53-3.08.2-5.8,1.04-8.55,2.39-1.11.54-2.23,1.1-3.49,1.2-1.52.12-3.04-.15-4.56-.23-3.25-.18-6.41.66-9.5,1.57s-1.77,5.74,1.33,4.82h0Z"/>
  <path class="cls-3" d="M449.11,483.57c3.43-.95,6.93-1.94,10.48-1.08,1.77.43,3.45.65,5.27.48,1.62-.15,3.24-.48,4.81.1,1.27.47,2.74-.52,3.08-1.75.38-1.4-.47-2.61-1.75-3.08-1.88-.69-3.82-.51-5.76-.32-.86.09-1.75.2-2.62.1s-1.66-.39-2.5-.55c-4.19-.84-8.31.14-12.35,1.26-3.1.86-1.78,5.68,1.33,4.82h0Z"/>
  <path class="cls-3" d="M426.18,478.36c-1.74.31-3.64-.6-5.28-1.08-2.09-.61-4.25-.94-6.38-.32s-2.57,4.44,0,4.82l4.88.73v-4.82c-2.04.4-4.23,0-6.3-.01-2.33-.02-4.66.11-6.98.3-4.62.39-9.23.94-13.83,1.43s-9.13.97-13.69,1.46c-2.38.25-4.77.46-7.14.77-2.22.29-3.79,1.23-5.31,2.84-.68.72-1.28,1.3-2.17,1.75-.99.51-1.96.95-2.84,1.65-.94.75-1.7,1.73-2.07,2.9-.17.54-.23,1.12-.2,1.68,0,.15.04.3.05.44.02.15.03.3.04.45,0,.33.04.2.12-.4l.9-.9-.21.15,3.03.39c-.6-.76-.84-1.74-.85-2.68-.06-3.23-4.85-3.21-5,0-.08,1.72-.1,3.44-.04,5.17.1,3.21,5.04,3.23,5,0-.03-1.88-.05-3.76-.08-5.64,0-.58-.39-2.73.26-2.93,3.07-.94,1.76-5.77-1.33-4.82-2.52.77-3.88,2.87-3.95,5.45s.06,5.3.1,7.94h5c-.06-1.72-.04-3.45.04-5.17h-5c.05,2.38.86,4.36,2.32,6.22.63.8,2.21.97,3.03.39.99-.7,1.56-1.53,1.65-2.75.03-.46-.21-1.14-.09-1.56.16-.55,1.1-.9,1.55-1.13.99-.5,1.94-.95,2.81-1.66,1.28-1.03,2.06-2.59,3.78-2.86,2.09-.33,4.25-.45,6.35-.67,9.09-.97,18.18-2.07,27.29-2.87,2.48-.22,4.97-.37,7.46-.35s5.08.34,7.63-.17c2.33-.46,2.44-4.46,0-4.82l-4.88-.73v4.82c1.75-.51,3.52.26,5.19.77,2.15.65,4.23,1.03,6.47.63,1.33-.24,2.08-1.86,1.75-3.08-.39-1.4-1.74-1.98-3.08-1.75h0Z"/>
  <path class="cls-3" d="M359.37,498.34c3.22,0,3.22-5,0-5s-3.22,5,0,5h0Z"/>
  <path class="cls-3" d="M359.37,498.34c3.22,0,3.22-5,0-5s-3.22,5,0,5h0Z"/>
  <path class="cls-3" d="M471.49,488.01c3.22,0,3.22-5,0-5s-3.22,5,0,5h0Z"/>
  <path class="cls-3" d="M471.49,488.01c3.22,0,3.22-5,0-5s-3.22,5,0,5h0Z"/>
  <path class="cls-8" d="M487.97,483.72c.02,1.15-.02,2.31-.14,3.45,0,.09-.13,1.05-.06.56-.04.24-.07.49-.12.73-.1.57-.21,1.13-.34,1.7-.26,1.12-.59,2.23-.98,3.31-.08.23-.17.46-.26.69-.06.15-.12.31-.18.46.09-.22.08-.19-.04.08-.24.53-.48,1.05-.75,1.56-.59,1.16-.34,2.77.9,3.42,1.14.6,2.79.35,3.42-.9,2.38-4.66,3.64-9.83,3.55-15.08-.02-1.31-1.14-2.56-2.5-2.5s-2.52,1.1-2.5,2.5h0Z"/>
  <path class="cls-8" d="M485.87,485.17c1.69,6.94,5.37,13.13,9.05,19.17,1.67,2.75,6,.24,4.32-2.52-3.46-5.69-6.96-11.45-8.54-17.98-.32-1.31-1.8-2.1-3.08-1.75-1.34.37-2.07,1.76-1.75,3.08h0Z"/>
  <path class="cls-8" d="M473.6,484.48c-.03.32-.07.63-.12.95l.09-.66c-.21,1.55-.52,3.07-.93,4.58-.17.63-.08,1.37.25,1.93.3.52.9,1.01,1.49,1.15.64.15,1.36.11,1.93-.25s.97-.85,1.15-1.49c.55-2.03.91-4.1,1.14-6.19.07-.6-.33-1.36-.73-1.77-.43-.43-1.15-.76-1.77-.73s-1.32.24-1.77.73l-.39.51c-.23.39-.34.81-.34,1.26h0Z"/>
  <path class="cls-8" d="M474.38,485.51l-.02.13.09-.66c-.12.84-.35,1.66-.68,2.45l.25-.6c-.3.7-.68,1.35-1.14,1.97h4.32c-.04-.07-.08-.15-.11-.23l.25.6c-.08-.2-.13-.4-.16-.62l.09.66c-.02-.22-.01-.42.01-.64l-.09.66c.03-.17.08-.33.14-.49l-.25.6c.17-.39.39-.74.56-1.13.25-.58.28-1.18.36-1.81l-.09.66c.04-.24.11-.46.2-.69l-.25.6c.16-.35.37-.66.6-.96l-.39.51c.95-1.21,2.03-2.27,2.48-3.79.38-1.25-.45-2.78-1.75-3.08s-2.67.4-3.08,1.75c-.04.13-.09.26-.14.39l.25-.6c-.16.35-.37.67-.61.98l.39-.51c-.55.7-1.16,1.35-1.67,2.08-.66.95-.88,1.97-1,3.09l.09-.66c-.02.15-.05.27-.1.41l.25-.6c-.13.29-.3.55-.43.83-.3.64-.41,1.11-.49,1.82-.1.93.18,1.87.61,2.69.41.77,1.31,1.24,2.16,1.24.96,0,1.62-.51,2.16-1.24,1.27-1.71,1.91-3.72,2.17-5.81.08-.59-.33-1.37-.73-1.77-.43-.43-1.15-.76-1.77-.73s-1.32.24-1.77.73c-.48.52-.64,1.07-.73,1.77h0Z"/>
  <path class="cls-3" d="M468.97,483.34l-.02.11.09-.66c-.28,2-.72,3.97-1.34,5.89-.4,1.25.47,2.78,1.75,3.08,1.37.31,2.65-.41,3.08-1.75.7-2.18,1.14-4.4,1.45-6.67.08-.59-.34-1.37-.73-1.77-.43-.43-1.15-.76-1.77-.73s-1.32.24-1.77.73l-.39.51c-.23.39-.34.81-.34,1.26h0Z"/>
  <path class="cls-3" d="M470.08,492.73c3.22,0,3.22-5,0-5s-3.22,5,0,5h0Z"/>
  <path class="cls-8" d="M474.29,494.9c3.22,0,3.22-5,0-5s-3.22,5,0,5h0Z"/>
  <path class="cls-8" d="M474.68,494c3.22,0,3.22-5,0-5s-3.22,5,0,5h0Z"/>
  <path class="cls-3" d="M356.06,414.39c-11.56,1.67-.18,7.75,4.78,9.8,6.43,2.75,13.94,4.37,20.96,5.59,11.48,2.06,24.27,2.37,37.02,1.95,8.8-.29,17.93-.39,26.55-2.07,6.44-1.26,14.09-3.58,18.41-7.16,7.77-7.25-6.78-9.71-14.94-9.53-6.6,0-14.23,1.47-21.95,2.28-10.06,1.13-20.29,1.28-30.15.55-12.14-.99-30.34-2.89-40.54-1.43l-.15.02Z"/>
  <path class="cls-6" d="M248.97,419.32c10.17-19.68,23.83-24.93,43.6-24.01"/>
  <path class="cls-6" d="M577.8,415.87c-10.17-19.68-23.83-24.93-43.6-24.01"/>
</svg>